<svg class="logo " xmlns="http://www.w3.org/2000/svg"
                width="4.01335in" height="3.23917in"
                viewbox="0 0 1493 1205">
                <style type="text/css">
                    .SgnHhitIcoSvg
                    {
                        border-left:2px solid #ff6740;
                        width:30px;
                        height:28px;
                        background-color:black;/* #a8b741; */
                        position:fixed;
                        right:0px;
                        bottom:0px;
                        border-bottom-left-radius:50%;
                        border-top-left-radius:50%;
                        border-top-right-radius:50%;
                        
                        /* width: 70vw;
                        visibility: hidden;
                        transform: translateY(-20%); */
                    }
        
                    .SgnHhitIcoA{
                        cursor:pointer;
                        /* background-color:black; */
                        padding: 2px;
                        z-index: 50;
                    }
                    .Ltr0-hidden{
                        /* fill="#a8b742" stroke="black" stroke-width="10" */
                        /*display: none;*/
                        /* stroke-width:"190"; */
                        fill: transparent;
                        stroke:transparent;
                        stroke-linecap:round;
                    }
                    .Ltr0{
                        /* fill="#a8b742" stroke="black" stroke-width="10" */
                        /*display: none;*/
                        /* stroke-width:"190"; */
                        fill: #a8b742;
                        stroke:black;
                    }
                    .Ltr2{
                        stroke-width:"0";
                        fill: #a8b742;
                        stroke:#fffccc;
                        
                    }
                    .logo{
                        background-color:black;
                        width:100%;
                        height: auto;
                    }
                    .logo:hover .Ltr0-hidden{
                        display: block;
                        transition: ease-in-out 0.1s;
                        stroke:#fffccc;
                        /* animation: rotateX-Up 6.5s linear 1; */

                        /* stroke-dasharray: 100;
                        animation: dash 6.5s linear 1; */
                        /* stroke-width: "180"; */
                        stroke-dasharray: 5000;
                        stroke-dashoffset: 5000;
                        animation: dash 6.5s linear forwards 0.80;
                        stroke-linecap:round;
                    }
                    .logo:hover .Ltr0{
                        display: block;
                        transition: ease-in-out 0.1s;
                        stroke:transparent;
                        animation: rotateX-Up 6.5s linear 1;

                    }
                    .logo:hover .Ltr1{
                        
                        animation: rotateYFfw 6.5s linear 1;
                    }
                    .logo:hover .Ltr2{
                        
                        animation: bounce-7 6.5s linear 1;
                        animation-timing-function: cubic-bezier(0.280, 0.840, 0.420, 1);
                    }
                    .logo:hover .Ltr3{
                        
                        animation: skewFfw 13s linear 0.5;
                        /* animation-timing-function: cubic-bezier(0.280, 0.840, 0.420, 1); */
                    }
                    
                    @keyframes dash {


                        to {
                            stroke-dashoffset: -750;
                        }
                        /* 0% {
                            
                            stroke-dashoffset: 1000;
                            
                            
                        }
                        10% {
                            stroke-dashoffset: 900;
                            
                        }
                        25% {
                            stroke-dashoffset: 750;
                            
                        }
                        50% {
                            stroke-dashoffset: 500;
                            
                        }
                        60% {
                            stroke-dashoffset: 400;
                            
                        }
                        75% {
                            stroke-dashoffset: 250;
                            
                        }
                        90% {
                            stroke-dashoffset: 100;
                            
                        }
                        100% {
                            stroke-dashoffset: 0;
                            
                        } */
                        
                    }
                    @keyframes rotateX-Up {
                        0% {
                            
                            
                            transform: rotateX(0deg);
                            
                        }
                        10% {
                            
                            transform: rotateX(36deg);
                        }
                        25% {
                            
                            transform: rotateX(90deg);
                        }
                        50% {
                            
                            transform: rotateX(180deg);
                        }
                        60% {
                            
                            transform: rotateX(252deg);
                        }
                        75% {
                            
                            transform: rotateX(270deg);
                        }
                        90% {
                            
                            transform: rotateX(360deg);
                        }
                        100% {
                            
                            transform: rotateX(360deg);
                        }
                        
                    }
                    @keyframes rotateYFfw {
                            0% {
                                transform: rotateY(0deg);
                                
                            }
                            10% {
                                transform: rotateY(0deg);
                                
                            }
                            25% {
                                transform: rotateY(90deg);
                            }
                            50% {
                                transform: rotateY(180deg);
                            }
                            75% {
                                transform: rotateY(270deg);
                            }
                            100% {
                                transform: rotateY(360deg);
                            }
                    }
                    @keyframes skewFfw {
                        0% {
                                
                            transform: skew(0deg, 0deg);
                        }
                        10% {
                                
                                transform: skew(0deg, 0deg);
                            }
                        25% {
                            transform: skew(90deg, 90deg);
                        }
                        50% {
                            transform: skew(180deg, 180deg);
                        }
                        75% {
                            transform: skew(270deg, 270deg);
                        }
                        100% {
                            transform: skew(360deg, 360deg);
                        }
                    }    
        
        
                    
                    @keyframes bounce-7 {
                            0% {
                                transform: scale(1,1) translateY(0);
                            }
        
                            5% {
                                transform: scale(1,1) translateY(0);
                            }
                            10% {
                                transform: scale(1.1,.9) translateY(0);
                            }
                            
                            50% {
                                transform: scale(1.75,.95) translateY(0);
                            }
        
                            
                            75% {
                                transform: scale(1.75,0.95) translateY(7px);
                            }
        
                            
        
                            100% {
                                transform: scale(1,1) translateY(0);
                            }
                        }    
        
        
                        @keyframes bounce-7-orignl {
                            0% {
                                transform: scale(1,1) translateY(0);
                            }
        
                            10% {
                                transform: scale(1.1,.9) translateY(0);
                            }
        
                            30% {
                                transform: scale(.9,1.1) translateY(-100px);
                            }
        
                            50% {
                                transform: scale(1.05,.95) translateY(0);
                            }
        
                            57% {
                                transform: scale(1,1) translateY(-7px);
                            }
        
                            64% {
                                transform: scale(1,1) translateY(0);
                            }
                            71% {
                                transform: scale(1.05,0.95) translateY(7px);
                            }
        
                            78% {
                                transform: scale(1,1) translateY(0);
                            }
        
                            100% {
                                transform: scale(1,1) translateY(0);
                            }
                        }
                                
                </style>

                <g id="strokes" fill="none" stroke="#bc85ff" stroke-linecap="round" stroke-linejoin="round"></g>
            <path class="Ltr0" clip-path="Ltr0" id="H1" d="M 234.73,0.36
                    
                      C 234.73,0.36 224.18,2.18 224.18,2.18
                        224.18,2.18 211.75,14.31 211.75,14.31
                        211.75,14.31 197.00,30.75 197.00,30.75
                        197.00,30.75 186.50,41.00 186.50,41.00
                        186.50,41.00 163.67,67.67 163.67,67.67
                        163.67,67.67 135.33,110.33 135.33,110.33
                        135.33,110.33 116.00,151.33 116.00,151.33
                        116.00,151.33 104.67,184.33 104.67,184.33
                        104.67,184.33 95.67,222.33 95.67,222.33
                        95.67,222.33 89.00,276.67 89.00,276.67
                        89.00,276.67 89.33,345.67 89.33,345.67
                        89.33,345.67 100.00,394.33 100.00,394.33
                        100.00,394.33 121.33,454.00 121.33,454.00
                        121.33,454.00 144.33,493.67 144.33,493.67
                        144.33,493.67 143.67,511.67 143.67,511.67
                        143.67,511.67 124.00,542.67 124.00,542.67
                        124.00,542.67 111.00,570.00 111.00,570.00
                        111.00,570.00 93.00,622.00 93.00,622.00
                        93.00,622.00 84.67,680.67 84.67,680.67
                        84.67,680.67 83.00,730.33 83.00,730.33
                        83.00,730.33 90.67,784.67 90.67,784.67
                        90.67,784.67 108.00,842.00 108.00,842.00
                        108.00,842.00 131.00,893.00 131.00,893.00
                        131.00,893.00 162.33,939.67 162.33,939.67
                        162.33,939.67 198.67,982.00 198.67,982.00
                        198.67,982.00 228.67,1012.67 228.67,1012.67
                        228.67,1012.67 225.67,1001.00 225.67,1001.00
                        225.67,1001.00 217.00,979.67 217.00,979.67
                        217.00,979.67 199.33,926.67 199.33,926.67
                        199.33,926.67 192.00,895.67 192.00,895.67
                        192.00,895.67 185.33,857.67 185.33,857.67
                        185.33,857.67 185.00,769.33 185.00,769.33
                        185.00,769.33 185.00,751.33 185.00,751.33
                        185.00,751.33 188.33,734.33 188.33,734.33
                        188.33,734.33 197.33,687.67 197.33,687.67
                        197.33,687.67 205.33,650.33 205.33,650.33
                        205.33,650.33 213.67,619.33 213.67,619.33
                        213.67,619.33 225.33,594.00 225.33,594.00
                        225.33,594.00 240.67,563.33 240.67,563.33
                        240.67,563.33 265.00,538.00 265.00,538.00
                        265.00,538.00 298.67,521.33 298.67,521.33
                        298.67,521.33 320.67,514.33 320.67,514.33
                        320.67,514.33 340.67,510.67 340.67,510.67
                        340.67,510.67 402.33,530.00 402.33,530.00
                        402.33,530.00 441.33,570.33 441.33,570.33
                        441.33,570.33 468.33,627.33 468.33,627.33
                        468.33,627.33 478.00,665.67 478.00,665.67
                        478.00,665.67 481.33,684.67 481.33,684.67
                        481.33,684.67 488.00,715.67 488.00,715.67
                        488.00,715.67 493.33,754.00 493.33,754.00
                        493.33,754.00 493.33,791.33 493.33,791.33
                        493.33,791.33 492.67,856.33 492.67,856.33
                        492.67,856.33 489.33,879.00 489.33,879.00
                        489.33,879.00 484.00,904.33 484.00,904.33
                        484.00,904.33 472.00,949.67 472.00,949.67
                        472.00,949.67 453.00,998.33 453.00,998.33
                        453.00,998.33 448.33,1010.33 448.33,1010.33
                        448.33,1010.33 460.33,1003.67 460.33,1003.67
                        460.33,1003.67 473.67,991.00 473.67,991.00
                        473.67,991.00 489.67,975.00 489.67,975.00
                        489.67,975.00 517.33,941.00 517.33,941.00
                        517.33,941.00 537.33,910.67 537.33,910.67
                        537.33,910.67 553.33,881.00 553.33,881.00
                        553.33,881.00 569.67,839.33 569.67,839.33
                        569.67,839.33 577.33,813.00 577.33,813.00
                        577.33,813.00 586.00,775.67 586.00,775.67
                        586.00,775.67 591.33,739.33 591.33,739.33
                        591.33,739.33 591.67,679.00 591.67,679.00
                        591.67,679.00 588.00,645.33 588.00,645.33
                        588.00,645.33 583.33,624.00 583.33,624.00
                        583.33,624.00 578.00,609.33 578.00,609.33
                        578.00,609.33 571.00,584.00 571.00,584.00
                        571.00,584.00 563.67,564.00 563.67,564.00
                        563.67,564.00 554.67,546.67 554.67,546.67
                        554.67,546.67 547.00,532.00 547.00,532.00
                        547.00,532.00 536.33,515.00 536.33,515.00
                        536.33,515.00 532.33,505.33 532.33,505.33
                        532.33,505.33 532.38,498.88 532.38,498.88
                        532.38,498.88 534.84,493.78 534.84,493.78
                        534.84,493.78 535.81,488.84 535.84,488.84
                        535.88,488.84 537.53,485.72 537.53,485.72
                        537.53,485.72 539.84,481.88 539.84,481.88
                        539.84,481.88 543.03,475.53 543.03,475.53
                        543.03,475.53 547.78,466.91 547.78,466.91
                        547.78,466.91 551.96,458.78 551.96,458.78
                        551.96,458.78 563.50,429.75 563.50,429.75
                        563.50,429.75 571.75,402.00 571.75,402.00
                        571.75,402.00 579.00,367.50 579.00,367.50
                        579.00,367.50 583.25,332.25 583.25,332.25
                        583.25,332.25 584.50,264.50 584.50,264.50
                        584.50,264.50 581.00,232.50 581.00,232.50
                        581.00,232.50 577.00,208.00 577.00,208.00
                        577.00,208.00 572.00,185.25 572.00,185.25
                        572.00,185.25 565.00,164.25 565.00,164.25
                        565.00,164.25 552.25,134.25 552.25,134.25
                        552.25,134.25 544.25,116.75 544.25,116.75
                        544.25,116.75 536.50,103.50 536.50,103.50
                        536.50,103.50 528.50,89.00 528.50,89.00
                        528.50,89.00 519.25,77.00 519.25,77.00
                        519.25,77.00 508.75,61.00 508.75,61.00
                        508.75,61.00 496.00,45.25 496.00,45.25
                        496.00,45.25 486.00,34.25 486.00,34.25
                        486.00,34.25 472.00,19.25 472.00,19.25
                        472.00,19.25 457.00,4.50 457.00,4.50
                        457.00,4.50 445.00,0.50 445.00,0.50
                        445.00,0.50 449.25,9.50 449.25,9.50
                        449.25,9.50 454.75,21.75 454.75,21.75
                        454.75,21.75 468.00,59.25 468.00,59.25
                        468.00,59.25 475.75,90.25 475.75,90.25
                        475.75,90.25 483.75,129.25 483.75,129.25
                        483.75,129.25 488.50,166.00 488.50,166.00
                        488.50,166.00 489.00,215.75 489.00,215.75
                        489.00,215.75 487.00,276.00 487.00,276.00
                        487.00,276.00 481.00,320.00 481.00,320.00
                        481.00,320.00 470.00,368.00 470.00,368.00
                        470.00,368.00 465.50,381.75 465.50,381.75
                        465.50,381.75 457.75,389.00 457.75,389.00
                        457.75,389.00 446.13,391.63 446.13,391.63
                        446.13,391.63 401.64,389.09 401.64,389.09
                        401.64,389.09 376.73,388.18 376.73,388.18
                        376.73,388.18 295.82,388.00 295.82,388.00
                        295.82,388.00 277.09,389.09 277.09,389.09
                        277.09,389.09 248.91,390.55 248.91,390.55
                        248.91,390.55 239.82,391.27 239.82,391.27
                        239.82,391.27 229.27,391.09 229.27,391.09
                        229.27,391.09 224.18,389.09 224.18,389.09
                        224.18,389.09 219.09,386.91 219.09,386.91
                        219.09,386.91 213.27,380.91 213.27,380.91
                        213.27,380.91 209.82,372.91 209.82,372.91
                        209.82,372.91 204.18,347.27 204.18,347.27
                        204.18,347.27 198.00,316.91 198.00,316.91
                        198.00,316.91 192.55,288.00 192.55,288.00
                        192.55,288.00 189.64,251.82 189.64,251.82
                        189.64,251.82 190.36,171.64 190.36,171.64
                        190.36,171.64 197.09,115.45 197.09,115.45
                        197.09,115.45 207.09,73.09 207.09,73.09
                        207.09,73.09 218.00,37.64 218.00,37.64
                        218.00,37.64 227.09,16.91 227.09,16.91
                        227.09,16.91 230.55,6.91 230.55,6.73
                        230.55,6.55 233.64,1.64 233.64,1.82M 768.64,71.27
                    " />
            <path class="Ltr0-hidden" clip-path="Ltr0" id="H1" stroke-width="15" d="M 234.73,0.36
                    
                    C 234.73,0.36 224.18,2.18 224.18,2.18
                      224.18,2.18 211.75,14.31 211.75,14.31
                      211.75,14.31 197.00,30.75 197.00,30.75
                      197.00,30.75 186.50,41.00 186.50,41.00
                      186.50,41.00 163.67,67.67 163.67,67.67
                      163.67,67.67 135.33,110.33 135.33,110.33
                      135.33,110.33 116.00,151.33 116.00,151.33
                      116.00,151.33 104.67,184.33 104.67,184.33
                      104.67,184.33 95.67,222.33 95.67,222.33
                      95.67,222.33 89.00,276.67 89.00,276.67
                      89.00,276.67 89.33,345.67 89.33,345.67
                      89.33,345.67 100.00,394.33 100.00,394.33
                      100.00,394.33 121.33,454.00 121.33,454.00
                      121.33,454.00 144.33,493.67 144.33,493.67
                      144.33,493.67 143.67,511.67 143.67,511.67
                      143.67,511.67 124.00,542.67 124.00,542.67
                      124.00,542.67 111.00,570.00 111.00,570.00
                      111.00,570.00 93.00,622.00 93.00,622.00
                      93.00,622.00 84.67,680.67 84.67,680.67
                      84.67,680.67 83.00,730.33 83.00,730.33
                      83.00,730.33 90.67,784.67 90.67,784.67
                      90.67,784.67 108.00,842.00 108.00,842.00
                      108.00,842.00 131.00,893.00 131.00,893.00
                      131.00,893.00 162.33,939.67 162.33,939.67
                      162.33,939.67 198.67,982.00 198.67,982.00
                      198.67,982.00 228.67,1012.67 228.67,1012.67
                      228.67,1012.67 225.67,1001.00 225.67,1001.00
                      225.67,1001.00 217.00,979.67 217.00,979.67
                      217.00,979.67 199.33,926.67 199.33,926.67
                      199.33,926.67 192.00,895.67 192.00,895.67
                      192.00,895.67 185.33,857.67 185.33,857.67
                      185.33,857.67 185.00,769.33 185.00,769.33
                      185.00,769.33 185.00,751.33 185.00,751.33
                      185.00,751.33 188.33,734.33 188.33,734.33
                      188.33,734.33 197.33,687.67 197.33,687.67
                      197.33,687.67 205.33,650.33 205.33,650.33
                      205.33,650.33 213.67,619.33 213.67,619.33
                      213.67,619.33 225.33,594.00 225.33,594.00
                      225.33,594.00 240.67,563.33 240.67,563.33
                      240.67,563.33 265.00,538.00 265.00,538.00
                      265.00,538.00 298.67,521.33 298.67,521.33
                      298.67,521.33 320.67,514.33 320.67,514.33
                      320.67,514.33 340.67,510.67 340.67,510.67
                      340.67,510.67 402.33,530.00 402.33,530.00
                      402.33,530.00 441.33,570.33 441.33,570.33
                      441.33,570.33 468.33,627.33 468.33,627.33
                      468.33,627.33 478.00,665.67 478.00,665.67
                      478.00,665.67 481.33,684.67 481.33,684.67
                      481.33,684.67 488.00,715.67 488.00,715.67
                      488.00,715.67 493.33,754.00 493.33,754.00
                      493.33,754.00 493.33,791.33 493.33,791.33
                      493.33,791.33 492.67,856.33 492.67,856.33
                      492.67,856.33 489.33,879.00 489.33,879.00
                      489.33,879.00 484.00,904.33 484.00,904.33
                      484.00,904.33 472.00,949.67 472.00,949.67
                      472.00,949.67 453.00,998.33 453.00,998.33
                      453.00,998.33 448.33,1010.33 448.33,1010.33
                      448.33,1010.33 460.33,1003.67 460.33,1003.67
                      460.33,1003.67 473.67,991.00 473.67,991.00
                      473.67,991.00 489.67,975.00 489.67,975.00
                      489.67,975.00 517.33,941.00 517.33,941.00
                      517.33,941.00 537.33,910.67 537.33,910.67
                      537.33,910.67 553.33,881.00 553.33,881.00
                      553.33,881.00 569.67,839.33 569.67,839.33
                      569.67,839.33 577.33,813.00 577.33,813.00
                      577.33,813.00 586.00,775.67 586.00,775.67
                      586.00,775.67 591.33,739.33 591.33,739.33
                      591.33,739.33 591.67,679.00 591.67,679.00
                      591.67,679.00 588.00,645.33 588.00,645.33
                      588.00,645.33 583.33,624.00 583.33,624.00
                      583.33,624.00 578.00,609.33 578.00,609.33
                      578.00,609.33 571.00,584.00 571.00,584.00
                      571.00,584.00 563.67,564.00 563.67,564.00
                      563.67,564.00 554.67,546.67 554.67,546.67
                      554.67,546.67 547.00,532.00 547.00,532.00
                      547.00,532.00 536.33,515.00 536.33,515.00
                      536.33,515.00 532.33,505.33 532.33,505.33
                      532.33,505.33 532.38,498.88 532.38,498.88
                      532.38,498.88 534.84,493.78 534.84,493.78
                      534.84,493.78 535.81,488.84 535.84,488.84
                      535.88,488.84 537.53,485.72 537.53,485.72
                      537.53,485.72 539.84,481.88 539.84,481.88
                      539.84,481.88 543.03,475.53 543.03,475.53
                      543.03,475.53 547.78,466.91 547.78,466.91
                      547.78,466.91 551.96,458.78 551.96,458.78
                      551.96,458.78 563.50,429.75 563.50,429.75
                      563.50,429.75 571.75,402.00 571.75,402.00
                      571.75,402.00 579.00,367.50 579.00,367.50
                      579.00,367.50 583.25,332.25 583.25,332.25
                      583.25,332.25 584.50,264.50 584.50,264.50
                      584.50,264.50 581.00,232.50 581.00,232.50
                      581.00,232.50 577.00,208.00 577.00,208.00
                      577.00,208.00 572.00,185.25 572.00,185.25
                      572.00,185.25 565.00,164.25 565.00,164.25
                      565.00,164.25 552.25,134.25 552.25,134.25
                      552.25,134.25 544.25,116.75 544.25,116.75
                      544.25,116.75 536.50,103.50 536.50,103.50
                      536.50,103.50 528.50,89.00 528.50,89.00
                      528.50,89.00 519.25,77.00 519.25,77.00
                      519.25,77.00 508.75,61.00 508.75,61.00
                      508.75,61.00 496.00,45.25 496.00,45.25
                      496.00,45.25 486.00,34.25 486.00,34.25
                      486.00,34.25 472.00,19.25 472.00,19.25
                      472.00,19.25 457.00,4.50 457.00,4.50
                      457.00,4.50 445.00,0.50 445.00,0.50
                      445.00,0.50 449.25,9.50 449.25,9.50
                      449.25,9.50 454.75,21.75 454.75,21.75
                      454.75,21.75 468.00,59.25 468.00,59.25
                      468.00,59.25 475.75,90.25 475.75,90.25
                      475.75,90.25 483.75,129.25 483.75,129.25
                      483.75,129.25 488.50,166.00 488.50,166.00
                      488.50,166.00 489.00,215.75 489.00,215.75
                      489.00,215.75 487.00,276.00 487.00,276.00
                      487.00,276.00 481.00,320.00 481.00,320.00
                      481.00,320.00 470.00,368.00 470.00,368.00
                      470.00,368.00 465.50,381.75 465.50,381.75
                      465.50,381.75 457.75,389.00 457.75,389.00
                      457.75,389.00 446.13,391.63 446.13,391.63
                      446.13,391.63 401.64,389.09 401.64,389.09
                      401.64,389.09 376.73,388.18 376.73,388.18
                      376.73,388.18 295.82,388.00 295.82,388.00
                      295.82,388.00 277.09,389.09 277.09,389.09
                      277.09,389.09 248.91,390.55 248.91,390.55
                      248.91,390.55 239.82,391.27 239.82,391.27
                      239.82,391.27 229.27,391.09 229.27,391.09
                      229.27,391.09 224.18,389.09 224.18,389.09
                      224.18,389.09 219.09,386.91 219.09,386.91
                      219.09,386.91 213.27,380.91 213.27,380.91
                      213.27,380.91 209.82,372.91 209.82,372.91
                      209.82,372.91 204.18,347.27 204.18,347.27
                      204.18,347.27 198.00,316.91 198.00,316.91
                      198.00,316.91 192.55,288.00 192.55,288.00
                      192.55,288.00 189.64,251.82 189.64,251.82
                      189.64,251.82 190.36,171.64 190.36,171.64
                      190.36,171.64 197.09,115.45 197.09,115.45
                      197.09,115.45 207.09,73.09 207.09,73.09
                      207.09,73.09 218.00,37.64 218.00,37.64
                      218.00,37.64 227.09,16.91 227.09,16.91
                      227.09,16.91 230.55,6.91 230.55,6.73
                      230.55,6.55 233.64,1.64 233.64,1.82M 768.64,71.27
                  " />

            <path class="Ltr1" clip-path="Ltr1" id="H2"
                    fill="#fffccc" stroke="black" stroke-width="0"
                    d="M 768.64,71.27
                    C 768.64,71.27 753.67,76.67 753.67,76.67
                        753.67,76.67 741.00,91.00 741.00,91.00
                        741.00,91.00 727.00,105.33 727.00,105.33
                        727.00,105.33 705.00,130.67 705.00,130.67
                        705.00,130.67 686.33,157.00 686.33,157.00
                        686.33,157.00 671.00,183.67 671.00,183.67
                        671.00,183.67 656.33,213.33 656.33,213.33
                        656.33,213.33 641.67,253.33 641.67,253.33
                        641.67,253.33 634.00,289.33 634.00,289.33
                        634.00,289.33 626.67,343.33 626.67,343.33
                        626.67,343.33 627.00,411.67 627.00,411.67
                        627.00,411.67 636.00,473.67 636.00,473.67
                        636.00,473.67 647.33,511.33 647.33,511.33
                        647.33,511.33 664.00,548.00 664.00,548.00
                        664.00,548.00 673.00,566.67 673.00,566.67
                        673.00,566.67 673.18,575.27 673.18,575.27
                        673.18,575.27 671.36,582.82 671.36,582.82
                        671.36,582.82 668.18,588.18 668.18,588.18
                        668.18,588.18 665.18,596.91 665.18,596.91
                        665.18,596.91 662.27,605.82 662.18,605.91
                        662.09,606.00 652.00,642.00 652.00,642.00
                        652.00,642.00 646.75,667.00 646.75,667.00
                        646.75,667.00 643.00,693.00 643.00,693.00
                        643.00,693.00 640.75,734.75 640.75,735.00
                        640.75,735.25 640.75,778.50 640.75,778.50
                        640.75,778.50 641.00,800.00 641.00,800.00
                        641.00,800.00 642.50,817.25 642.50,817.25
                        642.50,817.25 645.25,839.00 645.25,839.00
                        645.25,839.00 650.75,872.50 650.75,872.50
                        650.75,872.50 656.50,895.50 656.50,895.50
                        656.50,895.50 667.50,925.00 667.50,925.00
                        667.50,925.00 683.25,947.25 683.25,947.25
                        683.25,947.25 702.00,969.50 702.00,969.50
                        702.00,969.50 733.75,997.25 733.75,997.25
                        733.75,997.25 754.00,1012.25 754.00,1012.25
                        754.00,1012.25 750.50,1001.75 750.50,1001.75
                        750.50,1001.75 745.00,988.00 745.00,988.00
                        745.00,988.00 738.50,973.50 738.50,973.50
                        738.50,973.50 727.75,941.75 727.75,941.75
                        727.75,941.75 720.75,909.00 720.75,909.00
                        720.75,909.00 718.00,893.50 718.00,893.50
                        718.00,893.50 715.00,883.00 715.00,883.00
                        715.00,883.00 712.18,856.00 712.18,856.00
                        712.18,856.00 711.82,829.64 711.82,829.64
                        711.82,829.64 712.00,746.67 712.00,746.67
                        712.00,746.67 722.67,681.33 722.67,681.33
                        722.67,681.33 736.67,631.67 736.67,631.67
                        736.67,631.67 751.67,594.33 751.67,594.33
                        751.67,594.33 765.75,566.72 767.00,567.00
                        767.00,566.75 795.33,538.67 795.33,538.67
                        795.33,538.67 836.00,519.00 836.00,519.00
                        836.00,519.00 854.39,516.00 854.33,516.00
                        854.35,516.00 863.09,515.30 863.09,515.30
                        863.09,515.30 870.39,515.91 870.39,515.91
                        870.39,515.91 886.91,519.91 886.91,519.91
                        886.91,519.91 900.64,524.18 900.64,524.18
                        900.64,524.18 912.45,529.18 912.45,529.18
                        912.45,529.18 924.36,534.55 924.36,534.55
                        924.36,534.55 930.73,538.00 930.73,538.00
                        930.73,538.00 936.91,543.45 936.91,543.45
                        936.91,543.45 942.55,549.64 942.55,549.64
                        942.55,549.64 948.00,555.09 948.00,555.09
                        948.00,555.09 955.09,561.67 955.09,561.64
                        955.09,561.67 960.50,569.13 960.50,569.13
                        960.50,569.13 966.13,579.38 966.13,579.38
                        966.13,579.38 974.25,596.25 974.25,596.25
                        974.25,596.25 982.50,613.00 982.50,613.13
                        982.50,613.25 994.25,646.13 994.25,646.13
                        994.25,646.13 1002.38,679.75 1002.38,679.75
                        1002.38,679.75 1010.88,720.00 1010.88,720.00
                        1010.88,720.00 1014.75,760.75 1014.75,760.75
                        1014.75,760.75 1014.25,788.38 1014.25,788.38
                        1014.25,788.38 1014.50,843.38 1014.50,843.38
                        1014.50,843.38 1014.56,857.44 1014.56,857.44
                        1014.56,857.44 1013.50,870.13 1013.50,870.13
                        1013.50,870.13 1012.06,881.63 1012.06,881.63
                        1012.06,881.63 1009.00,892.56 1009.00,892.56
                        1009.00,892.56 1007.06,901.19 1007.06,901.19
                        1007.06,901.19 1005.00,914.13 1005.00,914.13
                        1005.00,914.13 1002.19,923.06 1002.19,923.19
                        1002.19,923.31 996.18,944.00 996.18,944.00
                        996.18,944.00 990.36,965.45 990.36,965.45
                        990.36,965.45 982.18,985.09 982.18,985.27
                        982.18,985.45 975.64,1001.64 975.64,1001.64
                        975.64,1001.64 972.18,1011.64 972.18,1011.64
                        972.18,1011.64 980.73,1006.73 980.73,1006.73
                        980.73,1006.73 991.27,999.09 991.27,999.09
                        991.27,999.09 1002.73,988.73 1002.73,988.73
                        1002.73,988.73 1010.65,981.74 1010.65,981.74
                        1010.65,981.74 1014.00,978.74 1014.00,978.74
                        1014.00,978.74 1008.91,972.73 1008.91,972.73
                        1008.91,972.73 1008.18,965.82 1008.18,965.82
                        1008.18,965.82 1008.91,959.09 1008.91,959.09
                        1008.91,959.09 1010.18,952.91 1010.18,952.91
                        1010.18,952.91 1012.55,946.18 1012.55,946.00
                        1012.55,945.82 1014.55,940.36 1014.55,940.36
                        1014.55,940.36 1016.18,934.18 1016.18,934.18
                        1016.18,934.18 1017.82,928.36 1017.82,928.36
                        1017.82,928.36 1020.00,920.91 1020.00,920.91
                        1020.00,920.91 1021.64,911.27 1021.64,911.27
                        1021.64,911.27 1024.36,900.55 1024.36,900.55
                        1024.36,900.55 1026.00,889.64 1026.00,889.45
                        1026.00,889.27 1028.55,873.45 1028.55,873.45
                        1028.55,873.45 1031.45,850.91 1031.45,850.91
                        1031.45,850.91 1032.55,843.82 1032.55,843.82
                        1032.55,843.82 1032.55,749.09 1032.55,749.09
                        1032.55,749.09 1024.18,695.09 1024.18,695.09
                        1024.18,695.09 1014.91,660.73 1014.91,660.73
                        1014.91,660.73 1004.00,629.64 1004.00,629.64
                        1004.00,629.64 992.91,606.00 992.91,606.00
                        992.91,606.00 981.82,585.82 981.82,585.82
                        981.82,585.82 968.00,565.64 968.00,565.64
                        968.00,565.64 944.18,536.91 944.18,536.91
                        944.18,536.91 916.36,514.55 916.36,514.55
                        916.36,514.55 902.18,506.55 902.18,506.55
                        902.18,506.55 872.73,498.36 872.73,498.36
                        872.73,498.36 848.91,498.36 848.91,498.36
                        848.91,498.36 826.73,504.36 826.73,504.36
                        826.73,504.36 799.82,519.45 799.82,519.45
                        799.82,519.45 779.09,536.91 779.09,536.91
                        779.09,536.91 757.09,561.82 757.09,561.82
                        757.09,561.82 741.45,584.91 741.45,584.91
                        741.45,584.91 729.45,606.91 729.45,606.91
                        729.45,606.91 716.18,638.55 716.18,638.55
                        716.18,638.55 704.18,678.36 704.18,678.36
                        704.18,678.36 696.36,715.09 696.36,715.09
                        696.36,715.09 692.18,744.91 692.18,744.91
                        692.18,744.91 691.27,764.00 691.27,764.00
                        691.27,764.00 690.55,843.82 690.55,843.82
                        690.55,843.82 696.00,880.55 696.00,880.55
                        696.00,880.55 704.73,928.73 704.73,928.73
                        704.73,928.73 708.55,945.45 708.55,945.45
                        708.55,945.45 708.36,952.73 708.36,952.73
                        708.36,952.73 706.55,956.36 706.55,956.36
                        706.55,956.36 702.00,955.09 702.00,955.09
                        702.00,955.09 695.64,946.55 695.64,946.55
                        695.64,946.55 688.73,933.09 688.73,933.09
                        688.73,933.09 686.36,926.18 686.36,926.18
                        686.36,926.18 683.45,919.27 683.45,919.27
                        683.45,919.27 680.00,908.73 680.00,908.73
                        680.00,908.73 673.64,886.55 673.64,886.55
                        673.64,886.55 667.45,858.73 667.45,858.73
                        667.45,858.73 662.55,818.36 662.55,818.36
                        662.55,818.36 660.73,793.09 660.73,793.09
                        660.73,793.09 660.55,774.00 660.55,774.00
                        660.55,774.00 662.91,745.64 662.91,745.64
                        662.91,745.64 665.09,723.64 665.09,723.64
                        665.09,723.64 669.09,695.27 669.09,695.27
                        669.09,695.27 677.27,661.45 677.27,661.45
                        677.27,661.45 685.82,634.18 685.82,634.18
                        685.82,634.18 695.45,610.91 695.45,610.73
                        695.45,610.55 706.36,586.18 706.36,586.00
                        706.36,585.82 720.36,560.91 720.36,560.91
                        720.36,560.91 731.09,544.36 731.09,544.36
                        731.09,544.36 744.73,528.18 744.73,528.18
                        744.73,528.18 758.18,515.27 758.18,515.27
                        758.18,515.27 776.91,500.91 776.91,500.91
                        776.91,500.91 802.18,487.45 802.18,487.45
                        802.18,487.45 822.91,479.64 822.91,479.64
                        822.91,479.64 847.64,474.36 847.64,474.36
                        847.64,474.36 885.82,475.09 885.82,475.09
                        885.82,475.09 913.64,482.00 913.64,482.00
                        913.64,482.00 940.18,492.91 940.18,492.91
                        940.18,492.91 969.45,513.09 969.45,513.09
                        969.45,513.09 992.91,536.18 992.91,536.18
                        992.91,536.18 1007.82,556.18 1007.82,556.18
                        1007.82,556.18 1026.18,591.27 1026.18,591.27
                        1026.18,591.27 1039.64,623.64 1039.64,623.64
                        1039.64,623.64 1042.91,631.09 1042.91,631.09
                        1042.91,631.09 1048.00,648.73 1048.00,648.73
                        1048.00,648.73 1054.91,673.27 1054.91,673.27
                        1054.91,673.27 1059.09,691.27 1059.09,691.27
                        1059.09,691.27 1061.64,708.36 1061.64,708.36
                        1061.64,708.36 1064.91,725.82 1064.91,725.82
                        1064.91,725.82 1066.55,752.91 1066.55,752.91
                        1066.55,752.91 1068.73,783.82 1068.73,783.82
                        1068.73,783.82 1066.91,809.09 1066.91,809.09
                        1066.91,809.09 1064.73,826.55 1064.73,826.55
                        1064.73,826.55 1062.55,852.55 1062.55,852.55
                        1062.55,852.55 1060.00,863.27 1060.00,863.27
                        1060.00,863.27 1055.27,888.91 1055.27,889.09
                        1055.27,889.27 1048.00,910.55 1048.00,910.55
                        1048.00,910.55 1039.82,931.82 1039.82,931.82
                        1039.82,931.82 1034.36,943.82 1034.36,943.82
                        1034.36,943.82 1027.45,955.27 1027.45,955.27
                        1027.45,955.27 1020.73,966.91 1020.73,966.73
                        1020.73,966.55 1016.00,971.82 1016.00,971.82
                        1016.00,971.82 1012.39,974.35 1012.39,974.35
                        1012.39,974.35 1011.12,974.89 1011.12,974.89
                        1011.12,974.89 1014.00,978.57 1014.00,978.57
                        1014.00,978.57 1018.04,975.91 1018.04,975.91
                        1018.04,975.91 1021.83,972.96 1021.83,972.96
                        1021.83,972.96 1029.75,965.88 1029.75,965.88
                        1029.75,965.88 1047.00,942.50 1047.00,942.50
                        1047.00,942.50 1061.88,919.63 1061.88,919.63
                        1061.88,919.63 1070.25,898.75 1070.25,898.75
                        1070.25,898.75 1074.00,880.38 1074.00,880.38
                        1074.00,880.38 1078.63,861.50 1078.63,861.50
                        1078.63,861.50 1082.63,840.75 1082.63,840.75
                        1082.63,840.75 1087.25,818.50 1087.25,818.50
                        1087.25,818.50 1087.63,781.50 1087.63,781.50
                        1087.63,781.50 1090.75,769.75 1090.75,769.75
                        1090.75,769.75 1090.38,742.38 1090.38,742.38
                        1090.38,742.38 1087.00,729.88 1087.00,729.88
                        1087.00,729.88 1086.50,694.75 1086.50,694.75
                        1086.50,694.75 1082.25,670.63 1082.25,670.63
                        1082.25,670.63 1077.00,647.00 1077.00,647.00
                        1077.00,647.00 1071.63,626.25 1071.63,626.25
                        1071.63,626.25 1068.63,615.13 1068.63,615.13
                        1068.63,615.13 1064.75,603.00 1064.75,603.00
                        1064.75,603.00 1062.13,593.75 1062.13,593.75
                        1062.13,593.75 1060.50,589.13 1060.50,589.13
                        1060.50,589.13 1060.38,583.88 1060.38,583.88
                        1060.38,583.88 1063.50,575.63 1063.50,575.63
                        1063.50,575.63 1070.25,566.25 1070.25,566.25
                        1070.25,566.25 1075.50,556.63 1075.50,556.63
                        1075.50,556.63 1082.88,542.25 1082.88,542.25
                        1082.88,542.25 1088.13,532.25 1088.13,532.25
                        1088.13,532.25 1095.25,514.00 1095.25,514.00
                        1095.25,514.00 1104.25,482.75 1104.25,482.75
                        1104.25,482.75 1112.50,457.25 1112.50,457.25
                        1112.50,457.25 1117.50,410.50 1117.50,410.50
                        1117.50,410.50 1119.00,397.50 1119.00,397.50
                        1119.00,397.50 1119.50,341.75 1119.50,341.75
                        1119.50,341.75 1115.00,307.00 1115.00,307.00
                        1115.00,307.00 1106.75,267.75 1106.75,267.75
                        1106.75,267.75 1094.25,229.50 1094.25,229.50
                        1094.25,229.50 1084.00,204.75 1084.00,204.75
                        1084.00,204.75 1072.00,183.50 1072.00,183.50
                        1072.00,183.50 1057.50,158.75 1057.50,158.75
                        1057.50,158.75 1037.25,130.00 1037.25,130.00
                        1037.25,130.00 1010.00,100.50 1010.00,100.25
                        1010.00,100.00 990.25,80.25 990.25,80.25
                        990.25,80.25 974.50,69.25 974.50,69.25
                        974.50,69.25 980.25,82.75 980.25,82.75
                        980.25,82.75 986.00,95.00 986.00,95.00
                        986.00,95.00 992.50,110.25 992.50,110.50
                        992.50,110.75 998.75,132.00 998.75,132.00
                        998.75,132.00 1003.00,147.00 1003.00,147.00
                        1003.00,147.00 1008.00,165.00 1008.00,165.00
                        1008.00,165.00 1013.00,185.75 1013.00,185.75
                        1013.00,185.75 1017.00,210.00 1017.00,210.00
                        1017.00,210.00 1020.50,233.00 1020.50,233.00
                        1020.50,233.00 1021.50,316.50 1021.50,316.50
                        1021.50,316.50 1017.25,367.75 1017.25,367.75
                        1017.25,367.75 1008.50,410.50 1008.50,410.50
                        1008.50,410.50 998.75,453.00 998.75,453.00
                        998.75,453.00 986.25,461.75 986.25,461.75
                        986.25,461.75 928.50,459.75 928.50,459.75
                        928.50,459.75 818.00,459.75 818.25,460.00
                        818.50,460.25 767.25,461.50 767.25,461.50
                        767.25,461.50 751.75,457.75 751.75,457.75
                        751.75,457.75 746.00,453.00 746.00,453.00
                        746.00,453.00 737.00,423.75 737.00,423.75
                        737.00,423.75 731.00,394.50 731.00,394.50
                        731.00,394.50 725.00,354.00 725.00,354.00
                        725.00,354.00 721.50,318.00 721.50,317.50
                        721.50,317.00 722.00,256.50 722.00,256.50
                        722.00,256.50 728.00,208.00 728.00,207.50
                        728.00,207.00 733.00,172.50 733.00,172.50
                        733.00,172.50 743.00,136.50 743.00,136.50
                        743.00,136.50 753.50,104.00 753.50,104.00
                        753.50,104.00 762.91,80.00 762.91,80.00
                        762.91,80.00 768.73,71.91 768.73,71.91M 1164.00,288.00" />

            <path class="Ltr2" clip-path="Ltr2" id="I"
                    
                    d="M 1164.00,288.00
                    C 1164.00,288.00 1167.33,408.67 1167.33,408.33
                        1167.33,408.00 1184.33,427.00 1184.33,427.00
                        1184.33,427.00 1201.67,454.33 1201.67,454.33
                        1201.67,454.33 1219.00,489.00 1219.00,489.00
                        1219.00,489.00 1226.67,525.33 1226.67,525.33
                        1226.67,525.33 1227.67,554.67 1227.67,554.67
                        1227.67,554.67 1231.33,586.33 1231.33,586.33
                        1231.33,586.33 1230.33,722.33 1230.33,722.33
                        1230.33,722.33 1246.67,818.00 1246.67,818.00
                        1246.67,818.00 1248.00,929.67 1248.00,929.67
                        1248.00,929.67 1242.33,962.67 1242.33,962.67
                        1242.33,962.67 1232.67,1005.00 1232.67,1005.00
                        1232.67,1005.00 1220.33,1046.33 1220.33,1046.67
                        1220.33,1047.00 1210.33,1071.00 1210.67,1071.33
                        1211.00,1071.67 1204.67,1082.67 1204.67,1082.67
                        1204.67,1082.67 1215.33,1076.00 1215.33,1076.00
                        1215.33,1076.00 1230.67,1059.67 1230.67,1059.67
                        1230.67,1059.67 1249.33,1039.67 1249.33,1039.67
                        1249.33,1039.67 1275.00,1009.00 1275.00,1008.67
                        1275.00,1008.33 1294.00,977.00 1294.00,977.00
                        1294.00,977.00 1303.00,942.33 1303.00,942.33
                        1303.00,942.33 1313.33,886.00 1313.33,886.00
                        1313.33,886.00 1315.00,841.00 1315.00,841.00
                        1315.00,841.00 1318.00,821.00 1318.00,821.00
                        1318.00,821.00 1314.33,799.33 1314.33,799.00
                        1314.33,798.67 1313.67,761.33 1313.67,761.33
                        1313.67,761.33 1309.33,737.33 1309.33,737.33
                        1309.33,737.33 1304.33,706.00 1304.33,706.00
                        1304.33,706.00 1308.33,674.67 1308.33,674.33
                        1308.33,674.00 1309.67,631.33 1309.67,631.33
                        1309.67,631.33 1313.67,612.00 1313.67,612.00
                        1313.67,612.00 1309.00,580.67 1309.00,580.67
                        1309.00,580.67 1309.67,551.00 1309.67,551.00
                        1309.67,551.00 1303.33,521.33 1303.33,521.33
                        1303.33,521.33 1296.33,481.00 1296.33,481.00
                        1296.33,481.00 1289.33,458.00 1289.33,458.00
                        1289.33,458.00 1282.00,435.33 1282.00,435.33
                        1282.00,435.33 1271.33,413.00 1271.33,413.00
                        1271.33,413.00 1264.91,396.91 1264.91,397.09
                        1264.91,397.27 1250.73,371.82 1250.73,371.82
                        1250.73,371.82 1234.56,350.03 1234.55,350.00
                        1234.56,350.03 1225.27,336.73 1225.27,336.73
                        1225.27,336.73 1214.36,324.00 1214.36,324.00
                        1214.36,324.00 1204.36,314.18 1204.36,314.18
                        1204.36,314.18 1194.18,307.09 1194.18,307.09
                        1194.18,307.09 1184.55,298.91 1184.55,298.91
                        1184.55,298.91 1178.91,295.45 1178.91,295.45
                        1178.91,295.45 1174.91,292.18 1174.91,292.18
                        1174.91,292.18 1167.09,288.55 1167.09,288.55
                        1167.09,288.55 1164.24,288.02 1164.24,288.02M 1090.73,19.55
                    
                        
                        
                        " />
            <path class="Ltr3" clip-path="Ltr3" id="T"
                    fill="#a8b742" stroke="#fffccc" stroke-width="1"
                    d="M 1090.73,19.55
                    C 1090.73,19.55 1098.82,20.91 1098.82,20.91
                        1098.82,20.91 1106.45,23.73 1106.45,23.73
                        1106.45,23.73 1115.73,27.00 1115.73,27.00
                        1115.73,27.00 1130.82,32.73 1130.82,32.73
                        1130.82,32.73 1146.82,37.82 1146.82,37.82
                        1146.82,37.82 1157.00,41.64 1157.00,41.64
                        1157.00,41.64 1180.00,47.67 1180.00,47.67
                        1180.00,47.67 1195.75,51.25 1195.75,51.25
                        1195.75,51.25 1216.13,55.13 1216.13,55.13
                        1216.13,55.13 1235.38,57.88 1235.38,57.88
                        1235.38,57.88 1249.25,60.38 1249.25,60.38
                        1249.25,60.38 1319.75,59.75 1319.75,59.75
                        1319.75,59.75 1334.75,57.50 1334.75,57.50
                        1334.75,57.50 1371.25,56.25 1371.25,56.25
                        1371.25,56.25 1393.00,52.00 1393.00,52.00
                        1393.00,52.00 1408.73,47.45 1408.73,47.45
                        1408.73,47.45 1424.00,42.73 1424.00,42.73
                        1424.00,42.73 1436.91,39.09 1436.91,39.09
                        1436.91,39.09 1450.55,34.36 1450.55,34.18
                        1450.55,34.00 1465.27,29.45 1465.27,29.45
                        1465.27,29.45 1472.69,26.63 1472.69,26.63
                        1472.69,26.63 1480.34,23.59 1480.34,23.59
                        1480.34,23.59 1485.13,21.03 1485.13,21.03
                        1485.13,21.03 1492.65,19.99 1492.66,20.03
                        1492.68,20.05 1491.84,24.91 1491.84,24.91
                        1491.84,24.91 1490.84,26.94 1490.84,26.94
                        1490.84,26.94 1488.91,29.84 1488.91,29.84
                        1488.91,29.84 1485.88,33.08 1485.91,33.02
                        1485.94,32.96 1485.00,34.02 1485.00,34.02
                        1485.00,34.02 1480.00,39.02 1480.00,39.02
                        1480.00,39.02 1471.13,47.04 1471.13,47.04
                        1471.13,47.04 1463.00,54.09 1463.00,54.09
                        1463.00,54.09 1457.73,58.82 1457.73,58.82
                        1457.73,58.82 1449.09,66.27 1449.09,66.27
                        1449.09,66.27 1438.55,74.55 1438.55,74.55
                        1438.55,74.55 1419.91,87.64 1419.91,87.64
                        1419.91,87.64 1413.82,91.82 1413.82,91.82
                        1413.82,91.82 1409.64,94.91 1409.64,94.91
                        1409.64,94.91 1401.73,98.91 1401.73,98.91
                        1401.73,98.91 1395.55,101.64 1395.55,101.64
                        1395.55,101.64 1392.91,107.00 1392.91,106.91
                        1392.91,106.82 1392.36,117.00 1392.36,117.00
                        1392.36,117.00 1395.82,125.55 1395.82,125.55
                        1395.82,125.55 1399.18,132.73 1399.18,132.73
                        1399.18,132.73 1403.27,140.55 1403.27,140.55
                        1403.27,140.55 1406.73,149.00 1406.73,149.00
                        1406.73,149.00 1408.73,152.27 1408.73,152.27
                        1408.73,152.27 1413.55,162.91 1413.55,162.91
                        1413.55,162.91 1417.64,174.00 1417.64,174.00
                        1417.64,174.00 1421.27,184.55 1421.27,184.55
                        1421.27,184.55 1424.64,197.45 1424.64,197.36
                        1424.64,197.27 1426.73,206.36 1426.73,206.36
                        1426.73,206.36 1428.82,212.55 1428.82,212.55
                        1428.82,212.55 1431.73,226.18 1431.73,226.36
                        1431.73,226.55 1433.91,236.55 1433.91,236.55
                        1433.91,236.55 1435.82,246.18 1435.82,246.18
                        1435.82,246.18 1436.55,254.18 1436.55,254.18
                        1436.55,254.18 1439.45,270.27 1439.45,270.27
                        1439.45,270.27 1440.27,302.91 1440.27,302.91
                        1440.27,302.91 1441.36,310.09 1441.36,310.09
                        1441.36,310.09 1442.55,315.27 1442.55,315.27
                        1442.55,315.27 1443.45,319.18 1443.45,319.18
                        1443.45,319.18 1444.27,323.00 1444.27,323.00
                        1444.27,323.00 1444.82,337.73 1444.82,337.73
                        1444.82,337.73 1443.64,341.91 1443.64,341.91
                        1443.64,341.91 1442.45,346.73 1442.45,346.73
                        1442.45,346.73 1441.45,351.64 1441.45,351.64
                        1441.45,351.64 1439.73,359.55 1439.73,359.55
                        1439.73,359.55 1439.82,389.64 1439.82,389.64
                        1439.82,389.64 1438.73,395.73 1438.73,395.73
                        1438.73,395.73 1437.64,400.09 1437.64,400.09
                        1437.64,400.09 1436.91,404.36 1436.91,404.36
                        1436.91,404.36 1436.09,407.09 1436.09,407.18
                        1436.09,407.27 1436.18,441.45 1436.18,441.45
                        1436.18,441.45 1437.36,447.27 1437.36,447.27
                        1437.36,447.27 1439.73,457.27 1439.73,457.27
                        1439.73,457.27 1440.45,464.09 1440.45,464.09
                        1440.45,464.09 1441.73,471.27 1441.73,471.27
                        1441.73,471.27 1442.45,476.09 1442.45,476.18
                        1442.45,476.27 1444.55,484.18 1444.55,484.18
                        1444.55,484.18 1444.64,492.73 1444.64,492.73
                        1444.64,492.73 1444.18,499.73 1444.09,499.73
                        1444.00,499.73 1444.64,506.00 1444.64,506.00
                        1444.64,506.00 1445.91,519.55 1445.91,519.55
                        1445.91,519.55 1448.36,533.27 1448.36,533.27
                        1448.36,533.27 1448.36,549.64 1448.36,549.64
                        1448.36,549.64 1445.45,563.27 1445.45,563.27
                        1445.45,563.27 1444.27,579.55 1444.27,579.55
                        1444.27,579.55 1444.45,584.64 1444.45,584.64
                        1444.45,584.64 1444.73,614.73 1444.73,614.73
                        1444.73,614.73 1442.45,623.64 1442.45,623.64
                        1442.45,623.64 1440.36,638.00 1440.36,638.00
                        1440.36,638.00 1439.64,663.73 1439.55,663.73
                        1439.45,663.73 1436.36,678.64 1436.36,678.64
                        1436.36,678.64 1436.36,713.09 1436.36,713.09
                        1436.36,713.09 1438.55,724.55 1438.55,724.55
                        1438.55,724.55 1440.55,736.82 1440.55,736.82
                        1440.55,736.82 1442.55,747.45 1442.55,747.45
                        1442.55,747.45 1443.73,752.27 1443.73,752.27
                        1443.73,752.27 1445.00,756.64 1445.00,756.64
                        1445.00,756.64 1444.45,764.91 1444.45,764.91
                        1444.45,764.91 1443.64,767.73 1443.64,767.82
                        1443.64,767.91 1444.45,771.18 1444.45,771.18
                        1444.45,771.18 1445.55,791.09 1445.55,791.09
                        1445.55,791.09 1448.73,805.18 1448.73,805.18
                        1448.73,805.18 1448.82,821.36 1448.82,821.36
                        1448.82,821.36 1445.45,835.91 1445.45,835.91
                        1445.45,835.91 1444.18,872.55 1444.18,872.55
                        1444.18,872.55 1441.45,886.36 1441.45,886.36
                        1441.45,886.36 1439.91,900.73 1439.82,900.64
                        1439.73,900.55 1436.64,918.55 1436.64,918.55
                        1436.64,918.55 1433.82,931.36 1433.82,931.36
                        1433.82,931.36 1430.45,941.09 1430.45,941.09
                        1430.45,941.09 1429.18,947.55 1429.18,947.55
                        1429.18,947.55 1426.64,958.55 1426.64,958.55
                        1426.64,958.55 1425.73,963.55 1425.73,963.55
                        1425.73,963.55 1421.73,973.64 1421.73,973.64
                        1421.73,973.64 1417.73,981.45 1417.73,981.45
                        1417.73,981.45 1409.73,992.73 1409.73,992.73
                        1409.73,992.73 1394.82,1012.64 1394.82,1012.64
                        1394.82,1012.64 1385.55,1024.64 1385.55,1024.64
                        1385.55,1024.64 1374.64,1035.64 1374.64,1035.64
                        1374.64,1035.64 1358.91,1051.73 1358.91,1051.73
                        1358.91,1051.73 1331.82,1078.82 1331.82,1078.82
                        1331.82,1078.82 1322.00,1085.45 1322.00,1085.45
                        1322.00,1085.45 1301.91,1097.55 1301.91,1097.55
                        1301.91,1097.55 1295.82,1102.00 1295.82,1102.00
                        1295.82,1102.00 1273.82,1112.82 1273.82,1112.82
                        1273.82,1112.82 1252.73,1121.82 1252.73,1121.82
                        1252.73,1121.82 1231.82,1129.64 1231.82,1129.64
                        1231.82,1129.64 1208.91,1136.64 1208.91,1136.64
                        1208.91,1136.64 1196.50,1140.75 1196.50,1140.75
                        1196.50,1140.75 1158.50,1151.75 1158.50,1151.75
                        1158.50,1151.75 1125.25,1159.25 1125.25,1159.25
                        1125.25,1159.25 1089.25,1167.50 1089.25,1167.50
                        1089.25,1167.50 1046.25,1175.75 1046.25,1175.75
                        1046.25,1175.75 994.50,1183.25 994.50,1183.25
                        994.50,1183.25 930.00,1191.00 930.00,1191.00
                        930.00,1191.00 884.75,1195.50 884.75,1195.50
                        884.75,1195.50 827.25,1199.25 827.25,1199.25
                        827.25,1199.25 706.75,1203.25 706.75,1203.25
                        706.75,1203.25 658.00,1203.50 658.00,1203.50
                        658.00,1203.50 537.75,1199.50 537.75,1199.50
                        537.75,1199.50 480.00,1195.33 480.00,1195.33
                        480.00,1195.33 435.67,1191.00 435.67,1190.67
                        435.67,1190.33 402.67,1187.33 402.67,1187.33
                        402.67,1187.33 370.13,1184.00 370.13,1184.00
                        370.13,1184.00 342.19,1179.69 342.19,1179.69
                        342.19,1179.69 318.27,1175.82 318.27,1175.91
                        318.27,1176.00 294.00,1172.00 294.00,1172.00
                        294.00,1172.00 274.09,1167.91 274.09,1167.91
                        274.09,1167.91 231.75,1158.75 231.75,1158.75
                        231.75,1158.75 143.75,1134.75 143.75,1134.75
                        143.75,1134.75 89.25,1112.75 89.25,1112.75
                        89.25,1112.75 41.75,1087.25 41.75,1087.00
                        41.75,1086.75 26.00,1072.88 26.00,1072.88
                        26.00,1072.88 21.50,1068.88 21.50,1068.88
                        21.50,1068.88 11.63,1056.63 11.63,1056.63
                        11.63,1056.63 4.00,1044.13 4.00,1044.13
                        4.00,1044.13 1.25,1031.13 1.25,1031.13
                        1.25,1031.13 1.13,1020.00 1.13,1020.00
                        1.13,1020.00 3.00,1012.13 3.00,1012.13
                        3.00,1012.13 4.50,1006.75 4.50,1006.75
                        4.50,1006.75 8.13,997.25 8.13,997.25
                        8.13,997.25 15.63,988.63 15.63,988.63
                        15.63,988.63 30.75,974.88 30.75,974.88
                        30.75,974.88 41.75,965.50 41.75,965.50
                        41.75,965.50 64.88,951.38 64.88,951.38
                        64.88,951.38 80.36,943.27 80.36,943.27
                        80.36,943.27 98.73,935.82 98.73,935.64
                        98.73,935.45 110.73,930.91 110.73,930.73
                        110.73,930.55 121.64,927.09 121.64,927.09
                        121.64,927.09 125.45,926.73 125.45,926.73
                        125.45,926.73 132.36,933.09 132.36,933.09
                        132.36,933.09 132.36,935.82 132.36,935.82
                        132.36,935.82 130.55,938.91 130.55,938.91
                        130.55,938.91 125.64,941.09 125.64,941.09
                        125.64,941.09 112.00,945.45 112.00,945.45
                        112.00,945.45 96.73,952.00 96.73,952.00
                        96.73,952.00 83.64,959.45 83.64,959.45
                        83.64,959.45 66.73,968.18 66.73,968.18
                        66.73,968.18 50.18,980.18 50.18,980.18
                        50.18,980.18 35.45,995.27 35.45,995.27
                        35.45,995.27 28.36,1009.27 28.36,1009.27
                        28.36,1009.27 28.18,1029.82 28.18,1029.82
                        28.18,1029.82 31.64,1037.27 31.64,1037.27
                        31.64,1037.27 38.36,1047.27 38.36,1047.27
                        38.36,1047.27 52.36,1061.82 52.36,1061.82
                        52.36,1061.82 78.36,1077.27 78.36,1077.27
                        78.36,1077.27 115.82,1094.55 115.82,1094.55
                        115.82,1094.55 158.00,1108.91 158.00,1108.91
                        158.00,1108.91 213.09,1122.55 213.09,1122.55
                        213.09,1122.55 253.82,1131.27 253.82,1131.27
                        253.82,1131.27 309.64,1139.64 309.64,1139.64
                        309.64,1139.64 352.36,1148.00 352.36,1148.00
                        352.36,1148.00 384.55,1151.45 384.55,1151.45
                        384.55,1151.45 421.45,1155.45 421.45,1155.45
                        421.45,1155.45 476.55,1160.18 476.55,1160.18
                        476.55,1160.18 528.73,1161.27 528.73,1161.27
                        528.73,1161.27 685.00,1165.00 685.00,1165.00
                        685.00,1165.00 836.00,1160.67 836.00,1160.67
                        836.00,1160.67 900.33,1157.00 900.33,1157.00
                        900.33,1157.00 957.00,1152.00 957.00,1152.00
                        957.00,1152.00 991.00,1148.67 991.00,1148.67
                        991.00,1148.67 1024.00,1144.33 1024.00,1144.33
                        1024.00,1144.33 1054.00,1140.67 1054.00,1140.67
                        1054.00,1140.67 1079.00,1137.00 1079.00,1137.00
                        1079.00,1137.00 1104.00,1132.00 1104.00,1132.00
                        1104.00,1132.00 1123.33,1128.33 1123.33,1128.00
                        1123.33,1127.67 1144.33,1123.00 1144.33,1123.00
                        1144.33,1123.00 1173.00,1117.33 1173.00,1117.33
                        1173.00,1117.33 1197.33,1111.67 1197.33,1111.00
                        1197.33,1110.33 1224.00,1103.33 1224.00,1103.33
                        1224.00,1103.33 1246.00,1096.33 1246.00,1096.33
                        1246.00,1096.33 1269.00,1085.67 1269.00,1085.67
                        1269.00,1085.67 1290.00,1076.33 1290.00,1076.00
                        1290.00,1075.67 1305.67,1067.67 1305.67,1067.67
                        1305.67,1067.67 1320.67,1054.67 1320.67,1054.67
                        1320.67,1054.67 1337.67,1033.00 1337.67,1033.00
                        1337.67,1033.00 1352.67,1012.33 1352.67,1012.33
                        1352.67,1012.33 1362.00,991.33 1362.00,991.33
                        1362.00,991.33 1370.33,957.33 1370.33,957.33
                        1370.33,957.33 1376.33,918.00 1376.33,918.00
                        1376.33,918.00 1377.00,879.00 1377.00,878.67
                        1377.00,878.33 1378.00,829.00 1378.00,829.00
                        1378.00,829.00 1375.00,797.67 1375.00,797.67
                        1375.00,797.67 1371.33,764.00 1371.33,764.00
                        1371.33,764.00 1368.67,728.33 1368.67,728.33
                        1368.67,728.33 1370.67,692.33 1370.67,692.33
                        1370.67,692.33 1374.67,665.67 1374.67,665.67
                        1374.67,665.67 1377.00,652.67 1377.33,652.67
                        1377.67,652.67 1377.67,537.67 1377.67,537.67
                        1377.67,537.67 1373.67,526.67 1373.67,526.67
                        1373.67,526.67 1371.00,499.67 1371.00,499.67
                        1371.00,499.67 1366.00,477.67 1366.00,477.67
                        1366.00,477.67 1360.67,447.00 1360.67,447.00
                        1360.67,447.00 1360.00,405.00 1360.00,405.00
                        1360.00,405.00 1358.67,298.33 1358.67,298.33
                        1358.67,298.33 1355.00,270.00 1355.00,270.00
                        1355.00,270.00 1354.67,242.00 1354.67,242.00
                        1354.67,242.00 1351.67,230.00 1351.67,230.00
                        1351.67,230.00 1344.33,205.67 1344.33,205.33
                        1344.33,205.00 1332.00,180.67 1332.00,180.67
                        1332.00,180.67 1319.00,158.33 1319.00,158.33
                        1319.00,158.33 1307.67,143.33 1307.67,143.33
                        1307.67,143.33 1293.33,129.00 1293.33,129.00
                        1293.33,129.00 1271.67,123.00 1271.67,123.00
                        1271.67,123.00 1244.00,118.00 1244.00,117.67
                        1244.00,117.33 1212.00,110.67 1212.00,110.33
                        1212.00,110.00 1182.00,100.67 1182.00,100.67
                        1182.00,100.67 1155.00,82.00 1155.00,82.00
                        1155.00,82.00 1136.33,67.33 1136.33,67.33
                        1136.33,67.33 1120.33,51.67 1120.33,51.67
                        1120.33,51.67 1104.33,38.67 1104.33,38.67
                        1104.33,38.67 1095.06,28.19 1095.06,28.19
                        1095.06,28.19 1091.13,21.25 1091.13,21.19
                        1091.13,21.13 1090.73,19.59 1090.73,19.59M 719.25,843.50
                    C 719.25,843.50 716.25,846.25 716.25,846.25
                        716.25,846.25 716.00,851.75 716.00,851.75
                        716.00,851.75 716.25,856.25 716.25,856.25
                        716.25,856.25 716.50,861.00 716.50,861.00
                        716.50,861.00 717.00,866.25 717.00,866.25
                        717.00,866.25 720.75,867.25 720.75,867.25
                        720.75,867.25 728.00,866.25 728.00,866.25
                        728.00,866.25 736.50,865.00 736.50,865.00
                        736.50,865.00 754.00,866.00 754.25,865.75
                        754.50,865.50 787.00,865.75 787.00,865.75
                        787.00,865.75 812.75,866.50 812.75,866.25
                        812.75,866.00 836.25,870.25 836.25,870.25
                        836.25,870.25 876.50,870.50 876.50,870.50
                        876.50,870.50 913.50,875.00 913.50,875.00
                        913.50,875.00 957.00,878.75 957.00,878.75
                        957.00,878.75 961.00,879.00 961.00,879.00
                        961.00,879.00 978.00,881.00 978.00,881.00
                        978.00,881.00 989.75,883.00 989.75,883.00
                        989.75,883.00 1001.50,885.00 1001.50,885.00
                        1001.50,885.00 1006.25,883.50 1006.25,883.50
                        1006.25,883.50 1009.00,872.75 1009.00,872.75
                        1009.00,872.75 1008.50,864.00 1008.50,864.00
                        1008.50,864.00 994.00,859.75 994.00,859.75
                        994.00,859.75 961.25,856.25 961.25,856.25
                        961.25,856.25 926.75,851.00 926.75,851.00
                        926.75,851.00 882.75,847.00 882.75,847.00
                        882.75,847.00 825.50,843.25 825.50,843.25
                        825.50,843.25 764.50,843.75 764.50,843.75
                        764.50,843.75 722.25,843.50 722.25,843.50
                        722.25,843.50 719.47,843.47 719.47,843.47M 1091.25,887.25
                    C 1091.25,887.25 1094.50,886.00 1094.50,886.00
                        1094.50,886.00 1159.50,900.00 1159.50,900.00
                        1159.50,900.00 1218.75,920.25 1218.75,920.25
                        1218.75,920.25 1229.00,924.75 1229.00,924.75
                        1229.00,924.75 1230.50,928.25 1230.50,928.25
                        1230.50,928.25 1229.00,933.00 1229.00,933.00
                        1229.00,933.00 1222.75,933.50 1222.75,933.50
                        1222.75,933.50 1208.50,929.50 1208.50,929.50
                        1208.50,929.50 1171.75,921.00 1171.75,921.00
                        1171.75,921.00 1146.00,915.50 1146.00,915.50
                        1146.00,915.50 1126.00,911.50 1126.00,911.50
                        1126.00,911.50 1106.75,907.00 1106.75,907.00
                        1106.75,907.00 1091.00,903.00 1091.00,903.00
                        1091.00,903.00 1085.25,899.50 1085.25,899.50
                        1085.25,899.50 1086.00,893.25 1086.00,893.25
                        1086.00,893.25 1088.25,889.00 1088.25,889.00
                        1088.25,889.00 1091.04,887.36 1091.04,887.36M 628.54,854.92
                    C 628.54,854.92 625.96,853.99 625.96,853.99
                        625.96,853.99 612.94,853.31 612.94,853.31
                        612.94,853.31 593.06,854.19 593.06,854.19
                        593.06,854.19 587.63,855.56 587.63,855.56
                        587.63,855.56 585.19,858.19 585.19,858.19
                        585.19,858.19 584.25,861.06 584.38,861.06
                        584.50,861.06 583.06,864.25 583.06,864.25
                        583.06,864.25 583.13,869.75 583.13,869.75
                        583.13,869.75 584.94,871.81 584.94,871.81
                        584.94,871.81 588.06,872.88 588.06,872.88
                        588.06,872.88 629.81,872.75 629.81,872.75
                        629.81,872.75 633.00,870.69 633.00,870.69
                        633.00,870.69 632.94,863.06 632.94,863.06
                        632.94,863.06 631.81,861.00 631.81,861.00
                        631.81,861.00 630.69,858.19 630.69,858.19
                        630.69,858.19 629.81,856.06 629.81,856.06
                        629.81,856.06 628.50,855.00 628.63,855.00M 213.45,900.36
                    C 213.45,900.36 228.18,895.27 228.18,895.27
                        228.18,895.27 247.27,892.18 247.27,892.18
                        247.27,892.18 267.45,885.82 267.45,885.82
                        267.45,885.82 292.00,880.18 292.00,880.00
                        292.00,879.82 313.09,876.55 313.09,876.55
                        313.09,876.55 344.18,871.09 344.36,871.09
                        344.55,871.09 382.73,866.73 382.73,866.73
                        382.73,866.73 403.09,864.18 403.09,864.18
                        403.09,864.18 432.36,861.64 432.36,861.64
                        432.36,861.64 450.91,859.64 450.91,859.64
                        450.91,859.64 467.82,861.27 467.82,861.27
                        467.82,861.27 472.36,864.36 472.36,864.36
                        472.36,864.36 472.73,873.27 472.73,873.27
                        472.73,873.27 467.64,878.55 467.64,878.55
                        467.64,878.55 456.55,881.64 456.55,881.45
                        456.55,881.27 419.64,883.45 419.64,883.45
                        419.64,883.45 411.64,886.18 411.64,886.18
                        411.64,886.18 378.00,890.55 378.00,890.36
                        378.00,890.18 339.45,895.45 339.45,895.45
                        339.45,895.45 309.45,900.00 309.45,900.00
                        309.45,900.00 281.09,903.45 281.09,903.45
                        281.09,903.45 254.36,907.27 254.36,907.27
                        254.36,907.27 216.91,912.73 216.91,912.73
                        216.91,912.73 214.36,910.36 214.36,910.36
                        214.36,910.36 212.55,906.91 212.55,906.91
                        212.55,906.91 211.82,902.36 211.82,902.36
                        211.82,902.36 213.42,900.39 213.42,900.39" />

</svg>
			
