<?xml version="1.0" encoding="UTF-8" standalone="no"?>
<!DOCTYPE svg PUBLIC "-//W3C//DTD SVG 20010904//EN"
              "http://www.w3.org/TR/2001/REC-SVG-20010904/DTD/svg10.dtd">

<svg id="okologo" xmlns="http://www.w3.org/2000/svg"
      width="4.55499in" height="4.55499in"
      viewBox="0 0 328 328"
      
     >
     <style>
      #okologo {/*background-color: #a8b741*/;padding: 2px;}
      
      #okologo #okologopart3{
        
        rx: 8.3;
        ry: 8.3;
        
      }
      #okologo #okologopart2{
        
        
        transition: ry 0.2s;
        animation: blink 6.5s ease-in-out 6;
      }
      #okologo #okologopart3{
        
        
        transition: ry 0.2s;
        animation: eyecenter 6.5s ease-in-out 6;
      }
      #okologo:hover #okologopart3{
        rx: 12.3;
        ry: 4.3;
      }
      
      @keyframes blink {
        0% {
            
            
            
            
        }
        10% {
            
            
        }
        25% {
            
            
        }
        50% {
            transform:none;
            
        }
        60% {
            
            
        }
        75% {
            
            
        }
        90% {
            
            
        }
        100% {
            
            ry: 0.3;
        }
        
      }
      @keyframes eyecenter {
        0% {
            
            
            
            
        }
        10% {
            
            
        }
        25% {
            
            
        }
        50% {
            transform:none;
            
        }
        60% {
            
            
        }
        75% {
            
            stroke:transparent;
            fill: transparent;
            
        }
        90% {
            
            
        }
        100% {
            stroke:transparent;
            fill: transparent;
        }
        
      }
     </style>
  <path id="okobck"
        fill="#a8b741" stroke="#a8b741" stroke-width="10"
        d="M 173.00,1.21
           C 187.92,1.02 203.93,4.93 218.00,9.67
             233.14,14.76 250.32,23.97 263.00,33.65
             334.58,88.31 347.35,193.44 291.79,264.00
             279.36,279.79 262.57,294.33 245.00,304.14
             224.31,315.68 196.87,324.96 173.00,325.00
             173.00,325.00 153.00,325.00 153.00,325.00
             141.06,324.86 124.37,321.12 113.00,317.33
             68.09,302.38 32.22,269.90 14.01,226.00
             2.91,199.23 1.96,182.25 2.00,154.00
             2.02,141.45 5.37,124.93 9.33,113.00
             22.00,74.87 46.89,42.52 82.00,22.43
             104.75,9.41 121.51,5.12 147.00,1.21
             147.00,1.21 173.00,1.21 173.00,1.21 Z" />
    <path id="okologopart1"
        fill="#fffccc" stroke="#fffccc" stroke-width="1"
        d="M 164.00,80.00
           C 164.00,80.00 164.00,144.00 164.00,144.00
             164.00,144.00 180.00,124.00 180.00,124.00
             180.00,124.00 188.09,115.60 188.09,115.60
             188.09,115.60 212.00,115.00 212.00,115.00
             209.11,121.78 197.95,133.77 192.75,140.00
             191.02,142.08 185.94,147.65 185.43,150.00
             184.65,153.65 190.92,160.12 193.12,163.00
             193.12,163.00 216.00,194.00 216.00,194.00
             216.00,194.00 195.00,194.00 195.00,194.00
             187.19,193.95 187.81,193.03 181.42,184.00
             181.42,184.00 164.00,159.00 164.00,159.00
             164.00,159.00 164.00,194.00 164.00,194.00
             164.00,194.00 142.00,194.00 142.00,194.00
             142.00,194.00 142.00,80.00 142.00,80.00
             142.00,80.00 164.00,80.00 164.00,80.00 Z
           M 111.91,101.01
           C 131.36,121.65 129.64,167.60 107.00,185.48
             95.36,194.68 83.27,196.16 69.00,196.00
             53.71,195.82 38.57,188.67 29.77,176.00
             16.39,156.74 17.80,118.86 33.46,101.09
             41.61,91.84 52.29,88.35 64.00,86.43
             81.20,84.30 99.64,88.00 111.91,101.01 Z
           M 44.00,144.00
           C 44.25,164.75 56.63,181.44 79.00,177.68
             95.30,174.93 101.83,157.68 102.00,143.00
             102.17,127.74 97.73,109.60 81.00,104.56
             77.03,103.65 71.11,103.87 67.00,104.56
             47.53,108.99 43.80,126.68 44.00,144.00 Z
           M 291.91,124.30
           C 307.74,138.97 307.74,171.02 291.91,185.70
             282.83,194.11 271.91,196.13 260.00,196.00
             248.56,195.86 237.82,191.78 230.21,183.00
             216.59,167.27 218.16,138.45 233.04,124.09
             239.00,118.34 245.11,116.21 253.00,114.46
             266.81,112.55 281.30,114.47 291.91,124.30 Z
           M 243.09,155.00
           C 243.74,166.38 247.77,178.38 261.00,178.96
             278.18,179.71 281.16,165.93 281.00,152.00
             280.84,139.29 274.36,130.46 261.00,130.39
             248.49,132.40 242.40,142.85 243.09,155.00 Z
           M 254.00,203.00
           C 254.00,203.00 254.00,217.00 254.00,217.00
             258.72,212.44 259.37,211.23 266.00,211.00
             266.00,211.00 260.04,220.00 260.04,220.00
             260.04,220.00 267.00,231.00 267.00,231.00
             259.46,230.74 258.62,228.61 254.00,223.00
             254.00,223.00 254.00,231.00 254.00,231.00
             254.00,231.00 249.00,231.00 249.00,231.00
             249.00,231.00 249.00,203.00 249.00,203.00
             249.00,203.00 254.00,203.00 254.00,203.00 Z
           M 75.00,206.00
           C 75.00,206.00 80.00,204.00 80.00,204.00
             76.93,211.57 72.07,211.57 69.00,204.00
             69.00,204.00 75.00,206.00 75.00,206.00 Z
           M 127.00,204.00
           C 124.86,208.38 123.81,209.22 119.00,210.00
             120.95,205.19 121.84,204.43 127.00,204.00 Z
           M 217.00,206.00
           C 217.00,206.00 217.00,211.00 217.00,211.00
             217.00,211.00 222.00,211.00 222.00,211.00
             222.00,211.00 222.00,215.00 222.00,215.00
             222.00,215.00 217.00,215.00 217.00,215.00
             217.00,220.69 215.65,224.97 222.00,227.00
             222.00,227.00 222.00,231.00 222.00,231.00
             211.55,230.87 213.00,228.12 213.00,215.00
             213.00,215.00 209.00,215.00 209.00,215.00
             209.00,215.00 209.00,211.00 209.00,211.00
             209.00,211.00 213.00,211.00 213.00,211.00
             213.61,207.47 213.67,207.34 217.00,206.00 Z
           M 53.57,214.23
           C 58.21,219.45 55.94,228.74 49.00,230.57
             36.44,233.87 32.05,216.11 43.02,211.57
             47.12,210.86 50.55,210.82 53.57,214.23 Z
           M 69.21,229.26
           C 64.33,225.68 63.79,217.54 68.28,213.43
             69.67,212.15 71.16,211.54 73.00,211.23
             75.61,210.79 77.54,211.30 80.00,212.00
             80.00,212.00 80.00,214.00 80.00,214.00
             77.07,214.93 73.50,215.44 71.62,218.15
             68.84,222.14 71.57,227.22 80.00,226.00
             78.97,231.83 73.52,232.42 69.21,229.26 Z
           M 95.00,213.00
           C 98.73,210.26 104.20,210.30 106.26,215.11
             107.38,217.71 107.00,227.62 107.00,231.00
             107.00,231.00 103.00,231.00 103.00,231.00
             103.00,227.60 103.78,217.66 99.74,216.34
             93.32,214.23 94.00,227.87 94.00,231.00
             94.00,231.00 90.00,231.00 90.00,231.00
             90.00,231.00 90.00,211.00 90.00,211.00
             90.00,211.00 95.00,213.00 95.00,213.00 Z
           M 124.00,211.00
           C 124.00,211.00 124.00,231.00 124.00,231.00
             124.00,231.00 119.00,231.00 119.00,231.00
             119.00,231.00 119.00,211.00 119.00,211.00
             119.00,211.00 124.00,211.00 124.00,211.00 Z
           M 168.57,213.65
           C 172.99,217.83 171.52,227.52 165.91,229.99
             154.21,235.16 145.65,218.56 158.02,211.74
             161.74,210.87 165.56,210.80 168.57,213.65 Z
           M 187.00,213.00
           C 201.89,203.37 205.38,232.25 191.00,230.85
             188.69,230.62 187.94,230.02 186.00,229.00
             186.00,229.00 186.00,238.00 186.00,238.00
             186.00,238.00 182.00,238.00 182.00,238.00
             182.00,238.00 182.00,211.00 182.00,211.00
             182.00,211.00 187.00,213.00 187.00,213.00 Z
           M 237.00,211.00
           C 237.00,211.00 237.00,231.00 237.00,231.00
             237.00,231.00 233.00,231.00 233.00,231.00
             233.00,231.00 233.00,211.00 233.00,211.00
             233.00,211.00 237.00,211.00 237.00,211.00 Z
           M 290.15,214.15
           C 292.69,217.76 292.00,226.49 292.00,231.00
             292.00,231.00 287.00,229.00 287.00,229.00
             279.01,234.88 271.53,226.06 277.43,220.56
             279.88,218.28 283.85,218.15 287.00,218.00
             283.10,214.22 281.76,215.54 277.00,217.00
             278.43,208.65 287.34,210.16 290.15,214.15 Z
           M 47.86,226.34
           C 51.82,225.00 52.96,215.09 45.09,215.66
             37.63,220.23 43.08,227.97 47.86,226.34 Z
           M 162.90,226.34
           C 167.95,224.71 168.44,215.07 160.13,215.66
             153.23,220.02 157.86,227.97 162.90,226.34 Z
           M 191.91,226.26
           C 196.36,225.13 198.27,215.06 190.13,215.66
             184.52,219.42 187.38,227.40 191.91,226.26 Z
           M 280.00,223.00
           C 282.01,228.72 285.48,226.77 287.00,222.00
             287.00,222.00 280.00,223.00 280.00,223.00 Z" />

    <ellipse id="okologopart2" fill="#fffccc" stroke="#fffccc" stroke-width="1" cx="73.73" cy="152.31" rx="24.3" ry="24.3"  />
    <ellipse id="okologopart3" fill="black" stroke="black" stroke-width="1" cx="73.73" cy="152.31" rx="8.3"  />                
</svg>
